<svg width="14" height="14" viewBox="0 0 14 14" fill="none" xmlns="http://www.w3.org/2000/svg">
<path d="M4.09766 3.65037C4.09766 4.2857 4.61269 4.80074 5.24802 4.80074C5.40864 4.80074 5.56156 4.76782 5.70043 4.70837C6.11085 4.53264 6.39839 4.12509 6.39839 3.65037C6.39839 3.01504 5.88335 2.5 5.24802 2.5C4.61269 2.5 4.09766 3.01504 4.09766 3.65037Z" stroke="black" stroke-linecap="round" stroke-linejoin="round"/>
<path d="M3.5 5.9398C3.68279 5.59213 3.9397 5.30478 4.24602 5.10539C4.55234 4.906 4.89777 4.80127 5.24911 4.80127C5.60045 4.80127 5.94588 4.906 6.2522 5.10539C6.55852 5.30478 6.81543 5.59213 6.99822 5.9398" stroke="black" stroke-linecap="round" stroke-linejoin="round"/>
<path d="M12.5 12.5C12.5 12.7652 12.3946 13.0196 12.2071 13.2071C12.0196 13.3946 11.7652 13.5 11.5 13.5H2.5C2.23478 13.5 1.98043 13.3946 1.79289 13.2071C1.60536 13.0196 1.5 12.7652 1.5 12.5V1.5C1.5 1.23478 1.60536 0.98043 1.79289 0.792893C1.98043 0.605357 2.23478 0.5 2.5 0.5H9L12.5 4V12.5Z" stroke="black" stroke-linecap="round" stroke-linejoin="round"/>
<path d="M3.5 8.5H10.5" stroke="black" stroke-linecap="round"/>
<path d="M3.5 11H7.5" stroke="black" stroke-linecap="round"/>
</svg>
