<svg width="14" height="14" viewBox="0 0 14 14" fill="none" xmlns="http://www.w3.org/2000/svg">
<path d="M7 6C8.38071 6 9.5 4.88071 9.5 3.5C9.5 2.11929 8.38071 1 7 1C5.61929 1 4.5 2.11929 4.5 3.5C4.5 4.88071 5.61929 6 7 6Z" stroke="black" stroke-linecap="round" stroke-linejoin="round"/>
<path d="M2.5 13.0001H7H11.5V12.458C11.492 11.6958 11.291 10.948 10.9157 10.2846C10.5404 9.62112 10.0031 9.06362 9.35393 8.66413C8.70475 8.26463 7.96491 8.0362 7.20352 8.00015C7.13564 7.99694 7.06778 7.99526 7 7.99512C6.93222 7.99526 6.86436 7.99694 6.79648 8.00015C6.03509 8.0362 5.29525 8.26463 4.64607 8.66413C3.9969 9.06362 3.45957 9.62112 3.08427 10.2846C2.70898 10.948 2.50796 11.6958 2.5 12.458V13.0001Z" stroke="black" stroke-linecap="round" stroke-linejoin="round"/>
</svg>
