<svg width="14" height="14" viewBox="0 0 14 14" fill="none" xmlns="http://www.w3.org/2000/svg">
<g clip-path="url(#clip0_107_7219)">
<path fill-rule="evenodd" clip-rule="evenodd" d="M4.82322 1.62693C4.87011 1.58005 4.9337 1.55371 5 1.55371H9C9.0663 1.55371 9.12989 1.58005 9.17678 1.62693C9.22366 1.67381 9.25 1.7374 9.25 1.80371V3.00024H4.75V1.80371C4.75 1.7374 4.77634 1.67381 4.82322 1.62693ZM3.25 3.00024V1.80371C3.25 1.33958 3.43437 0.894462 3.76256 0.566274C4.09075 0.238085 4.53587 0.0537109 5 0.0537109H9C9.46413 0.0537109 9.90925 0.238085 10.2374 0.566274C10.5656 0.894462 10.75 1.33958 10.75 1.80371V3.00024H12.5C13.3284 3.00024 14 3.67181 14 4.50024V12.5002C14 13.3286 13.3284 14.0002 12.5 14.0002H1.5C0.671573 14.0002 0 13.3286 0 12.5002V4.50024C0 3.67181 0.671573 3.00024 1.5 3.00024H3.25ZM2.875 6.57843C2.875 6.23325 3.15482 5.95343 3.5 5.95343H10.5C10.8452 5.95343 11.125 6.23325 11.125 6.57843C11.125 6.9236 10.8452 7.20343 10.5 7.20343H3.5C3.15482 7.20343 2.875 6.9236 2.875 6.57843ZM3.5 9.79705C3.15482 9.79705 2.875 10.0768 2.875 10.422C2.875 10.7672 3.15482 11.047 3.5 11.047H10.5C10.8452 11.047 11.125 10.7672 11.125 10.422C11.125 10.0768 10.8452 9.79705 10.5 9.79705H3.5Z" fill="black"/>
</g>
<defs>
<clipPath id="clip0_107_7219">
<rect width="14" height="14" fill="white"/>
</clipPath>
</defs>
</svg>
