<svg width="14" height="14" viewBox="0 0 14 14" fill="none" xmlns="http://www.w3.org/2000/svg">
<g clip-path="url(#clip0_107_7220)">
<path fill-rule="evenodd" clip-rule="evenodd" d="M5 0.0200195C4.53587 0.0200195 4.09075 0.204394 3.76256 0.532583C3.43437 0.860771 3.25 1.30589 3.25 1.77002V3.00027H1.5C0.671573 3.00027 0 3.67184 0 4.50027V12.5002C0 13.3287 0.671573 14.0002 1.5 14.0002H12.5C13.3284 14.0002 14 13.3287 14 12.5002V4.50027C14 3.67184 13.3284 3.00027 12.5 3.00027H10.75V1.77002C10.75 1.30589 10.5656 0.860771 10.2374 0.532583C9.90925 0.204394 9.46413 0.0200195 9 0.0200195H5ZM9.25 3.00027V1.77002C9.25 1.70371 9.22366 1.64012 9.17678 1.59324C9.12989 1.54635 9.0663 1.52002 9 1.52002H5C4.9337 1.52002 4.87011 1.54635 4.82322 1.59324C4.77634 1.64012 4.75 1.70371 4.75 1.77002V3.00027H9.25Z" fill="black"/>
</g>
<defs>
<clipPath id="clip0_107_7220">
<rect width="14" height="14" fill="white"/>
</clipPath>
</defs>
</svg>
