<svg width="14" height="14" viewBox="0 0 14 14" fill="none" xmlns="http://www.w3.org/2000/svg">
<g clip-path="url(#clip0_360_4034)">
<path d="M3.57357 1.76698C3.57626 2.11276 3.4428 2.44571 3.20202 2.6939C2.96125 2.94208 2.63249 3.08557 2.28679 3.09336C1.94181 3.0807 1.61488 2.936 1.37355 2.68914C1.13223 2.44229 0.994957 2.11217 0.990112 1.76698C1.00511 1.43068 1.14742 1.11265 1.38821 0.877383C1.62899 0.642113 1.95023 0.507203 2.28679 0.5C2.62238 0.507337 2.94248 0.642582 3.18166 0.878085C3.42084 1.11359 3.56104 1.43156 3.57357 1.76698ZM1.12869 5.44916C1.12869 4.68699 1.61371 4.80577 2.28679 4.80577C2.95988 4.80577 3.435 4.68699 3.435 5.44916V12.8729C3.435 13.645 2.94998 13.4866 2.28679 13.4866C1.62361 13.4866 1.12869 13.645 1.12869 12.8729V5.44916Z" stroke="black" stroke-linecap="round" stroke-linejoin="round"/>
<path d="M5.43445 5.44927C5.43445 5.02364 5.59282 4.86527 5.84028 4.81578C6.08774 4.76628 6.93899 4.81578 7.23594 4.81578C7.53289 4.81578 7.65167 5.30079 7.64177 5.66703C7.89578 5.32613 8.23302 5.05611 8.62123 4.8828C9.00943 4.70949 9.43561 4.6387 9.859 4.6772C10.2747 4.65178 10.6912 4.71412 11.0813 4.86015C11.4713 5.00618 11.8264 5.23265 12.1232 5.52484C12.4201 5.81703 12.6521 6.1684 12.8043 6.55613C12.9565 6.94386 13.0254 7.35927 13.0066 7.77537V12.8433C13.0066 13.6154 12.5315 13.457 11.8584 13.457C11.1853 13.457 10.7102 13.6154 10.7102 12.8433V8.88399C10.7276 8.68021 10.701 8.47508 10.6321 8.28252C10.5632 8.08996 10.4536 7.91448 10.3109 7.768C10.1682 7.62152 9.99565 7.50747 9.80494 7.43359C9.61424 7.35972 9.40987 7.32774 9.20571 7.33985C9.0025 7.33469 8.80051 7.37275 8.61311 7.45152C8.42572 7.53028 8.25719 7.64796 8.11869 7.79675C7.9802 7.94555 7.87488 8.12206 7.80973 8.31461C7.74458 8.50716 7.72107 8.71136 7.74076 8.91368V12.873C7.74076 13.6451 7.25574 13.4867 6.58265 13.4867C5.90957 13.4867 5.43445 13.6451 5.43445 12.873V5.44927Z" stroke="black" stroke-linecap="round" stroke-linejoin="round"/>
</g>
<defs>
<clipPath id="clip0_360_4034">
<rect width="14" height="14" fill="white"/>
</clipPath>
</defs>
</svg>
