<svg width="435" height="435" viewBox="0 0 435 435" fill="none" xmlns="http://www.w3.org/2000/svg">
<path d="M365.47 5.61194C379.616 4.48143 396.995 8.21808 408.62 16.2276C420.07 24.1178 428.764 38.1187 430.954 51.794C438.322 97.7881 411.846 150.549 388.135 188.241C382.925 196.485 377.509 204.597 371.893 212.57C369.843 215.497 367.681 218.261 365.674 221.187C369.017 225.21 374.837 234.193 377.936 238.919C399.14 271.268 419.327 308.888 426.604 347.127C429.907 367.233 430.119 389.329 418.352 406.908C400.914 432.955 367.409 434.514 339.638 428.316C295.105 418.375 254.32 394.036 217.464 367.902C211.73 372.371 200.606 379.618 194.293 383.646C159.245 406.001 111.083 430.943 68.7652 430.731C55.2862 430.884 41.0875 427.241 30.0874 419.372C18.1062 410.799 10.6308 397.144 8.361 382.798C1.42731 338.975 28.4995 284.866 50.9249 248.846C56.8354 239.431 63.0478 230.208 69.552 221.194C68.3685 219.131 65.1011 214.843 63.5994 212.71C59.647 207.21 55.8414 201.605 52.1866 195.903C31.4999 163.713 12.1615 127.378 5.141 89.4302C1.57963 70.18 2.46416 46.7321 13.8589 30.0451C21.9683 18.1692 35.8715 9.83777 50.1533 7.57125C96.6401 0.193672 148.614 27.5247 187.057 51.068C197.545 57.4905 207.616 65.0074 217.502 71.8501C251.986 45.871 299.899 17.956 342.361 8.68647C349.971 7.02499 357.713 6.20174 365.47 5.61194ZM102.353 220.984C109.764 229.843 116.258 238.216 123.989 247.018C145.264 271.283 168.224 294.016 192.697 315.052C198.426 319.974 204.247 324.787 210.158 329.487C212.115 331.033 215.503 333.844 217.46 335.12L217.638 335.131C219.286 333.557 221.319 332.217 223.116 330.796C231.408 324.249 239.494 317.493 247.47 310.562C269.985 290.875 291.163 269.704 310.859 247.196C316.348 240.975 321.747 234.809 326.942 228.322C328.812 225.986 331.122 223.337 332.788 220.92C331.492 218.826 330.06 217.441 328.648 215.548C325.052 210.724 321.18 206.174 317.325 201.548C290.792 169.879 261.423 140.7 229.584 114.374L221.268 107.636C220.603 107.104 218.022 104.993 217.455 104.656C215.937 106.202 210.297 110.377 208.217 112.075C201.762 117.406 195.389 122.836 189.101 128.365C163.88 150.756 140.317 174.947 118.599 200.75C114.7 205.423 110.798 210.007 107.101 214.854C105.578 216.85 103.755 218.934 102.353 220.984ZM239.178 88.4636C257.459 103.118 274.968 118.712 291.63 135.184C297.359 140.833 302.998 146.57 308.546 152.394C311.031 154.98 314.166 158.693 316.724 160.96C323.408 168.972 330.916 177.05 337.788 185.177C340.213 188.056 342.605 190.966 344.958 193.906C346.095 195.313 348.079 197.932 349.291 199.03C350.413 197.673 351.209 196.278 352.227 194.833C355.396 190.246 358.495 185.609 361.519 180.924C382.252 149.412 409.07 100.18 405.897 61.2861C405.191 52.6362 401.874 44.3132 395.017 38.7307C387.864 32.9059 376.606 31.1524 367.605 31.5328C332.586 32.5916 288.617 56.1047 259.604 74.6301C254.917 77.629 250.286 80.716 245.713 83.8899C243.732 85.2531 240.985 87.0044 239.178 88.4636ZM86.3914 242.925C84.5665 245.18 82.9565 247.791 81.342 250.223C78.4448 254.537 75.6248 258.904 72.8835 263.32C54.1734 293.338 30.4835 339.26 33.7798 375.521C34.54 383.51 37.7566 392.169 44.2262 397.292C54.7758 405.648 69.3555 405.353 81.9987 403.826C98.379 401.848 112.37 395.918 127.493 390.069C146.424 382.284 166.466 370.449 183.594 359.285C187.08 357.012 192.188 353.828 195.441 351.324C188.767 345.617 181.834 340.203 175.089 334.406C162.026 323.158 149.359 311.458 137.108 299.33C122.341 284.483 108.179 269.046 94.6566 253.056C91.8362 249.751 89.1909 246.194 86.3914 242.925ZM348.915 242.889L348.767 243.05C348.068 243.821 347.511 244.577 346.864 245.382C339.769 254.201 332.34 262.816 324.759 271.219C305.203 292.918 284.318 313.381 262.223 332.488C254.77 338.999 247.132 345.294 239.316 351.369C244.114 354.43 248.744 357.803 253.566 360.904C267.799 370.054 282.637 378.826 297.988 385.969C300.452 387.116 305.507 389.778 308.011 390.483C310.6 392.001 320.02 395.485 323.298 396.628C340.64 402.677 361.713 408.112 379.996 403.616C387.367 401.802 393.72 397.118 397.59 390.504C405.308 377.312 402.301 355.326 398.49 341.159C390.1 309.946 373.584 280.057 355.957 253.131C355.156 251.907 349.606 243.313 348.915 242.889ZM61.5435 32.369C51.9803 33.4367 42.0805 35.6748 36.2192 43.9725C23.9513 61.3402 30.8981 89.8217 37.0119 108.049C46.0545 135.007 59.6504 159.277 75.0143 182.967C77.801 187.232 83.0692 195.44 86.1746 199.379C88.7448 195.451 92.4158 191.131 95.4546 187.446C100.932 180.849 106.52 174.346 112.218 167.939L118.147 161.377C119.449 159.952 120.774 158.74 121.853 157.138C125.953 153.039 129.737 148.933 133.774 144.856C144.103 134.308 154.737 124.064 165.663 114.136C172.401 108.091 179.233 102.151 186.156 96.3187C189.115 93.8308 192.92 90.9948 195.669 88.4744C194.314 87.2232 191.338 85.3075 189.744 84.2085C185.509 81.2653 181.213 78.411 176.858 75.6477C146.188 55.8507 101.188 31.7834 63.6461 32.2539C63.2897 32.2583 61.8855 32.3129 61.5435 32.369Z" fill="#2368AC"/>
<path d="M216.464 157.921C249.938 156.764 278.022 182.941 279.216 216.412C280.412 249.885 254.267 277.998 220.797 279.232C187.272 280.469 159.103 254.271 157.905 220.745C156.708 187.219 182.937 159.08 216.464 157.921Z" fill="#2368AC"/>
</svg>
