<svg width="338" height="397" viewBox="0 0 338 397" fill="none" xmlns="http://www.w3.org/2000/svg">
<g filter="url(#filter0_d_363_11760)">
<g clip-path="url(#clip0_363_11760)">
<g clip-path="url(#clip1_363_11760)">
<path d="M301.142 83.44L98.1445 36.6065C95.1941 35.9258 92.2487 37.7743 91.5656 40.7351L32.1965 298.067C31.5134 301.028 33.3513 303.98 36.3016 304.661L239.299 351.494C242.249 352.175 245.195 350.326 245.878 347.366L305.247 90.0335C305.93 87.0727 304.092 84.1207 301.142 83.44Z" fill="white" stroke="#E3E0DD" stroke-width="0.888887"/>
<path d="M286.748 97.0582L105.118 55.1543C103.643 54.814 102.17 55.7382 101.829 57.2186L99.3548 67.9409C99.0133 69.4213 99.9323 70.8973 101.407 71.2377L283.038 113.142C284.513 113.482 285.985 112.558 286.327 111.077L288.801 100.355C289.142 98.8746 288.223 97.3986 286.748 97.0582Z" fill="#E4E4E7"/>
<path d="M115.381 71.6383C118.331 72.319 121.277 70.4705 121.96 67.5096C122.643 64.5488 120.805 61.5967 117.855 60.9161C114.904 60.2354 111.959 62.0838 111.276 65.0447C110.593 68.0056 112.431 70.9576 115.381 71.6383Z" fill="#4E4641"/>
<path d="M241.438 92.2516L222.741 87.938C222.004 87.7678 221.267 88.2299 221.097 88.9702L220.478 91.6507C220.307 92.3909 220.767 93.1289 221.504 93.2991L240.202 97.6128C240.939 97.7829 241.676 97.3208 241.846 96.5806L242.465 93.9C242.636 93.1598 242.176 92.4218 241.438 92.2516Z" fill="#EDEBE9"/>
<path d="M270.82 99.03L252.122 94.7163C251.385 94.5462 250.648 95.0083 250.478 95.7485L249.859 98.429C249.688 99.1693 250.148 99.9073 250.886 100.077L269.583 104.391C270.32 104.561 271.057 104.099 271.228 103.359L271.846 100.678C272.017 99.9381 271.557 99.2001 270.82 99.03Z" fill="#EDEBE9"/>
<path d="M279.228 123.556L100.269 82.2681C98.0564 81.7576 95.8473 83.1439 95.335 85.3646L81.7295 144.337C81.2171 146.557 82.5956 148.772 84.8084 149.282L263.767 190.57C265.98 191.08 268.189 189.694 268.702 187.473L282.307 128.501C282.819 126.28 281.441 124.066 279.228 123.556Z" fill="#E4E4E7" stroke="#D4D4D8" stroke-width="0.888887" stroke-dasharray="3.56 2.67"/>
<path d="M243.564 137.913L126.038 110.798C125.301 110.628 124.564 111.09 124.394 111.831L123.157 117.192C122.986 117.932 123.446 118.67 124.183 118.84L241.708 145.954C242.446 146.124 243.182 145.662 243.353 144.922L244.59 139.561C244.761 138.821 244.301 138.083 243.564 137.913Z" fill="#A1A1AA"/>
<path d="M219.82 149.374L142.36 131.503C141.623 131.333 140.886 131.795 140.716 132.536L140.097 135.216C139.927 135.956 140.386 136.694 141.124 136.865L218.583 154.735C219.321 154.905 220.057 154.443 220.228 153.703L220.847 151.023C221.017 150.282 220.558 149.544 219.82 149.374Z" fill="#A1A1AA"/>
<path d="M208.715 160.928L147.281 146.755C145.806 146.415 144.333 147.339 143.992 148.819L142.755 154.18C142.413 155.661 143.332 157.137 144.808 157.477L206.241 171.651C207.717 171.991 209.189 171.067 209.531 169.586L210.768 164.225C211.109 162.745 210.19 161.269 208.715 160.928Z" fill="#A1A1AA"/>
<path d="M161.13 178.182L82.3347 160.003C80.122 159.493 77.9129 160.879 77.4006 163.1L65.3411 215.371C64.8288 217.591 66.2073 219.805 68.42 220.316L147.215 238.495C149.428 239.005 151.637 237.619 152.15 235.398L164.209 183.128C164.721 180.907 163.343 178.693 161.13 178.182Z" fill="#E4E4E7" stroke="#D4D4D8" stroke-width="0.888887"/>
<path d="M261.293 201.291L182.498 183.112C180.285 182.601 178.076 183.988 177.564 186.208L165.504 238.479C164.992 240.7 166.37 242.914 168.583 243.424L247.379 261.603C249.591 262.114 251.8 260.727 252.313 258.507L264.372 206.236C264.884 204.015 263.506 201.801 261.293 201.291Z" fill="#E4E4E7" stroke="#D4D4D8" stroke-width="0.888887"/>
<path d="M150.643 187.056L89.2096 172.883C87.7344 172.542 86.2617 173.467 85.9201 174.947L80.9727 196.392C80.6311 197.872 81.5501 199.348 83.0253 199.688L144.459 213.862C145.934 214.202 147.407 213.278 147.748 211.797L152.696 190.353C153.037 188.873 152.118 187.397 150.643 187.056Z" fill="#A1A1AA"/>
<path d="M131.203 216.449L80.4529 204.741C79.7153 204.571 78.979 205.033 78.8082 205.773L78.1898 208.453C78.019 209.194 78.4785 209.932 79.2161 210.102L129.966 221.81C130.703 221.98 131.44 221.518 131.61 220.778L132.229 218.098C132.4 217.357 131.94 216.619 131.203 216.449Z" fill="#A1A1AA"/>
<path d="M250.806 210.165L189.373 195.991C187.897 195.651 186.425 196.575 186.083 198.056L181.136 219.5C180.794 220.98 181.713 222.456 183.188 222.797L244.622 236.97C246.097 237.311 247.57 236.386 247.912 234.906L252.859 213.461C253.201 211.981 252.282 210.505 250.806 210.165Z" fill="#A1A1AA"/>
<path d="M231.366 239.558L180.616 227.849C179.878 227.679 179.142 228.141 178.971 228.881L178.353 231.562C178.182 232.302 178.642 233.04 179.379 233.21L230.129 244.919C230.866 245.089 231.603 244.627 231.773 243.887L232.392 241.206C232.563 240.466 232.103 239.728 231.366 239.558Z" fill="#A1A1AA"/>
<path d="M245.412 282.323L61.1109 239.803C60.3733 239.633 59.6369 240.095 59.4661 240.835L59.1569 242.176C58.9862 242.916 59.4456 243.654 60.1832 243.824L244.484 286.344C245.222 286.514 245.958 286.052 246.129 285.312L246.438 283.972C246.609 283.232 246.15 282.494 245.412 282.323Z" fill="#EDEBE9" fill-opacity="0.5"/>
<path d="M189.518 280.721L58.6372 250.526C57.8996 250.356 57.1632 250.818 56.9924 251.558L56.6832 252.898C56.5124 253.639 56.9719 254.377 57.7095 254.547L188.59 284.742C189.328 284.912 190.064 284.45 190.235 283.71L190.544 282.37C190.715 281.63 190.255 280.892 189.518 280.721Z" fill="#EDEBE9" fill-opacity="0.4"/>
<path d="M213.754 297.605L56.1635 261.248C55.4259 261.077 54.6895 261.54 54.5187 262.28L54.2095 263.62C54.0387 264.36 54.4982 265.098 55.2358 265.268L212.827 301.626C213.564 301.796 214.301 301.334 214.471 300.594L214.781 299.254C214.951 298.514 214.492 297.776 213.754 297.605Z" fill="#EDEBE9" fill-opacity="0.3"/>
</g>
</g>
</g>
<defs>
<filter id="filter0_d_363_11760" x="0" y="0" width="337.443" height="396.1" filterUnits="userSpaceOnUse" color-interpolation-filters="sRGB">
<feFlood flood-opacity="0" result="BackgroundImageFix"/>
<feColorMatrix in="SourceAlpha" type="matrix" values="0 0 0 0 0 0 0 0 0 0 0 0 0 0 0 0 0 0 127 0" result="hardAlpha"/>
<feMorphology radius="4" operator="erode" in="SourceAlpha" result="effect1_dropShadow_363_11760"/>
<feOffset dy="4"/>
<feGaussianBlur stdDeviation="8"/>
<feComposite in2="hardAlpha" operator="out"/>
<feColorMatrix type="matrix" values="0 0 0 0 0 0 0 0 0 0 0 0 0 0 0 0 0 0 0.08 0"/>
<feBlend mode="normal" in2="BackgroundImageFix" result="effect1_dropShadow_363_11760"/>
<feBlend mode="normal" in="SourceGraphic" in2="effect1_dropShadow_363_11760" result="shape"/>
</filter>
<clipPath id="clip0_363_11760">
<rect x="85.0518" y="8" width="246.706" height="324.957" rx="10" transform="rotate(12.9914 85.0518 8)" fill="white"/>
</clipPath>
<clipPath id="clip1_363_11760">
<rect width="246.706" height="324.957" fill="white" transform="translate(85.0518 8) rotate(12.9914)"/>
</clipPath>
</defs>
</svg>
