<svg width="293" height="365" viewBox="0 0 293 365" fill="none" xmlns="http://www.w3.org/2000/svg">
<g filter="url(#filter0_d_363_11761)">
<g clip-path="url(#clip0_363_11761)">
<g clip-path="url(#clip1_363_11761)">
<path d="M240.697 34.1184L32.8744 48.6508C29.854 48.862 27.5766 51.4817 27.7878 54.502L46.1438 317.005C46.355 320.026 48.9748 322.303 51.9953 322.092L259.818 307.559C262.839 307.348 265.116 304.728 264.905 301.708L246.549 39.2048C246.338 36.1844 243.718 33.9072 240.697 34.1184Z" fill="white" stroke="#E4E4E7" stroke-width="0.888887"/>
<path d="M163.308 67.0074L59.3966 74.2736C57.8864 74.3792 56.7477 75.6891 56.8533 77.1993L57.2357 82.6681C57.3413 84.1782 58.6512 85.3169 60.1615 85.2113L164.073 77.9451C165.583 77.8395 166.722 76.5296 166.616 75.0194L166.234 69.5506C166.128 68.0404 164.818 66.9018 163.308 67.0074Z" fill="#4E4641"/>
<path d="M124.997 88.9217L59.3683 93.5108C58.6132 93.5636 58.0438 94.2186 58.0966 94.9736L58.2879 97.7081C58.3407 98.4631 58.9956 99.0325 59.7507 98.9797L125.379 94.3905C126.134 94.3377 126.703 93.6827 126.651 92.9277L126.459 90.1933C126.407 89.4382 125.752 88.8689 124.997 88.9217Z" fill="#D4D4D8"/>
<path d="M76.8934 128.006L63.2208 128.962C61.7106 129.068 60.5719 130.378 60.6775 131.888L64.1193 181.107C64.2249 182.617 65.5348 183.756 67.045 183.65L80.7176 182.694C82.2278 182.589 83.3665 181.279 83.2609 179.769L79.8191 130.549C79.7135 129.039 78.4036 127.9 76.8934 128.006Z" fill="#3170C4"/>
<path d="M103.283 112.422L89.6104 113.378C88.1001 113.484 86.9615 114.794 87.0671 116.304L91.4649 179.195C91.5705 180.705 92.8804 181.844 94.3906 181.738L108.063 180.782C109.573 180.677 110.712 179.367 110.606 177.857L106.209 114.965C106.103 113.455 104.793 112.316 103.283 112.422Z" fill="#548FDC"/>
<path d="M132.062 131.018L118.39 131.974C116.879 132.079 115.741 133.389 115.846 134.899L118.81 177.283C118.916 178.793 120.225 179.932 121.736 179.826L135.408 178.87C136.918 178.764 138.057 177.454 137.952 175.944L134.988 133.561C134.882 132.051 133.572 130.912 132.062 131.018Z" fill="#3170C4"/>
<path d="M157.495 101.762L143.823 102.718C142.312 102.824 141.174 104.133 141.279 105.644L146.155 175.371C146.261 176.881 147.571 178.02 149.081 177.914L162.753 176.958C164.264 176.853 165.402 175.543 165.297 174.033L160.421 104.305C160.315 102.795 159.005 101.656 157.495 101.762Z" fill="#85B6EA"/>
<path d="M228.926 199.808L67.5899 211.09C66.8348 211.143 66.2655 211.798 66.3183 212.553L66.5095 215.287C66.5623 216.042 67.2172 216.612 67.9723 216.559L229.309 205.277C230.064 205.224 230.633 204.569 230.58 203.814L230.389 201.08C230.336 200.325 229.681 199.755 228.926 199.808Z" fill="#D4D4D8"/>
<path d="M202.729 218.127L68.7374 227.496C67.9823 227.549 67.413 228.204 67.4658 228.959L67.657 231.693C67.7098 232.448 68.3647 233.018 69.1199 232.965L203.111 223.595C203.866 223.543 204.435 222.888 204.383 222.133L204.191 219.398C204.139 218.643 203.484 218.074 202.729 218.127Z" fill="#D4D4D8"/>
<path d="M217.548 233.577L69.8847 243.902C69.1295 243.955 68.5602 244.61 68.613 245.365L68.8042 248.1C68.857 248.855 69.512 249.424 70.2671 249.371L217.931 239.046C218.686 238.993 219.255 238.338 219.202 237.583L219.011 234.848C218.958 234.093 218.303 233.524 217.548 233.577Z" fill="#D4D4D8"/>
<path d="M164.006 253.808L71.0323 260.31C70.2772 260.362 69.7078 261.017 69.7606 261.772L69.9519 264.507C70.0047 265.262 70.6596 265.831 71.4147 265.778L164.388 259.277C165.143 259.224 165.713 258.569 165.66 257.814L165.469 255.08C165.416 254.325 164.761 253.756 164.006 253.808Z" fill="#D4D4D8"/>
<ellipse cx="212.634" cy="139.006" rx="27.354" ry="27.354" transform="rotate(-4 212.634 139.006)" fill="#D9D9D9"/>
<path d="M239.922 137.098C240.343 143.116 238.762 149.105 235.426 154.132C232.09 159.159 227.186 162.942 221.476 164.892C215.767 166.842 209.573 166.85 203.859 164.914C198.145 162.979 193.231 159.208 189.882 154.19C186.533 149.171 184.937 143.187 185.343 137.167C185.748 131.148 188.133 125.431 192.124 120.907C196.116 116.384 201.492 113.307 207.414 112.155C213.336 111.004 219.473 111.842 224.869 114.541L212.635 139.006L239.922 137.098Z" fill="#3170C4"/>
</g>
</g>
</g>
<defs>
<filter id="filter0_d_363_11761" x="0" y="0" width="292.693" height="364.211" filterUnits="userSpaceOnUse" color-interpolation-filters="sRGB">
<feFlood flood-opacity="0" result="BackgroundImageFix"/>
<feColorMatrix in="SourceAlpha" type="matrix" values="0 0 0 0 0 0 0 0 0 0 0 0 0 0 0 0 0 0 127 0" result="hardAlpha"/>
<feMorphology radius="4" operator="erode" in="SourceAlpha" result="effect1_dropShadow_363_11761"/>
<feOffset dy="4"/>
<feGaussianBlur stdDeviation="8"/>
<feComposite in2="hardAlpha" operator="out"/>
<feColorMatrix type="matrix" values="0 0 0 0 0 0 0 0 0 0 0 0 0 0 0 0 0 0 0.08 0"/>
<feBlend mode="normal" in2="BackgroundImageFix" result="effect1_dropShadow_363_11761"/>
<feBlend mode="normal" in="SourceGraphic" in2="effect1_dropShadow_363_11761" result="shape"/>
</filter>
<clipPath id="clip0_363_11761">
<rect x="12" y="25.209" width="246.707" height="323.791" rx="10" transform="rotate(-4 12 25.209)" fill="white"/>
</clipPath>
<clipPath id="clip1_363_11761">
<rect width="246.707" height="323.791" fill="white" transform="translate(12 25.209) rotate(-4)"/>
</clipPath>
</defs>
</svg>
